# xmcd CD database file
#
# Track frame offsets:
#	150
#	19065
#	32107
#
# Disc length: 551 seconds
#
# Revision: 0
# Processed by: cddbd v1.4PL0 Copyright (c) Steve Scherf et al.
# Submitted via: CDex 1.40Beta8
#
DISCID=1b022503
DTITLE=Lucie Idlout - 3 song CD
DYEAR=1988
DGENRE=Native American
TTITLE0=Aija  ja
TTITLE1=Big Red Chair
TTITLE2=Nunatigut
EXTD=YEAR: 1988 ID3G: 64
EXTT0=
EXTT1=
EXTT2=
PLAYORDER=
